<mxfile host="65bd71144e">
    <diagram name="Pagina-1" id="xzlasXtwS9tDgBcQnAEd">
        <mxGraphModel dx="1523" dy="2038" grid="1" gridSize="10" guides="1" tooltips="1" connect="1" arrows="1" fold="1" page="1" pageScale="1" pageWidth="827" pageHeight="1169" math="0" shadow="0">
            <root>
                <mxCell id="0"/>
                <mxCell id="1" parent="0"/>
                <mxCell id="YhRIJiWPDkl4EWL_sA5s-21" value="" style="swimlane;startSize=0;strokeWidth=4;" parent="1" vertex="1">
                    <mxGeometry x="210" y="-250" width="1240" height="640" as="geometry">
                        <mxRectangle x="210" y="-250" width="50" height="40" as="alternateBounds"/>
                    </mxGeometry>
                </mxCell>
                <mxCell id="YhRIJiWPDkl4EWL_sA5s-22" value="" style="shape=image;html=1;verticalLabelPosition=bottom;verticalAlign=top;imageAspect=0;image=https://gitlab.developers.cam.ac.uk/uploads/-/system/project/avatar/4542/compose.png;" parent="YhRIJiWPDkl4EWL_sA5s-21" vertex="1">
                    <mxGeometry x="1109" y="2.5" width="131" height="190" as="geometry"/>
                </mxCell>
                <mxCell id="YhRIJiWPDkl4EWL_sA5s-30" style="edgeStyle=orthogonalEdgeStyle;rounded=0;orthogonalLoop=1;jettySize=auto;html=1;" parent="YhRIJiWPDkl4EWL_sA5s-21" source="3" target="YhRIJiWPDkl4EWL_sA5s-6" edge="1">
                    <mxGeometry relative="1" as="geometry">
                        <mxPoint x="590" y="192.5000000000001" as="sourcePoint"/>
                    </mxGeometry>
                </mxCell>
                <mxCell id="YhRIJiWPDkl4EWL_sA5s-34" value="" style="group" parent="YhRIJiWPDkl4EWL_sA5s-21" vertex="1" connectable="0">
                    <mxGeometry x="670" y="400" width="210" height="205" as="geometry"/>
                </mxCell>
                <mxCell id="YhRIJiWPDkl4EWL_sA5s-15" value="" style="shape=image;html=1;verticalLabelPosition=bottom;verticalAlign=top;imageAspect=0;image=https://upload.wikimedia.org/wikipedia/commons/thumb/a/a1/Grafana_logo.svg/1200px-Grafana_logo.svg.png;aspect=fixed;clipPath=inset(0.67% 9.18% 20.67% 11.9%);" parent="YhRIJiWPDkl4EWL_sA5s-34" vertex="1">
                    <mxGeometry y="45" width="157.28813559322035" height="160" as="geometry"/>
                </mxCell>
                <mxCell id="YhRIJiWPDkl4EWL_sA5s-25" value="" style="shape=image;html=1;verticalLabelPosition=bottom;verticalAlign=top;imageAspect=0;image=https://blog.knoldus.com/wp-content/uploads/2018/04/docker.png;" parent="YhRIJiWPDkl4EWL_sA5s-34" vertex="1">
                    <mxGeometry x="120" y="12.5" width="80" height="60" as="geometry"/>
                </mxCell>
                <mxCell id="YhRIJiWPDkl4EWL_sA5s-35" value="" style="group" parent="YhRIJiWPDkl4EWL_sA5s-21" vertex="1" connectable="0">
                    <mxGeometry x="30" y="330" width="190" height="165" as="geometry"/>
                </mxCell>
                <mxCell id="YhRIJiWPDkl4EWL_sA5s-11" value="" style="shape=image;html=1;verticalLabelPosition=bottom;verticalAlign=top;imageAspect=0;image=https://cdn-icons-png.flaticon.com/512/149/149071.png;" parent="YhRIJiWPDkl4EWL_sA5s-35" vertex="1">
                    <mxGeometry y="25" width="140" height="140" as="geometry"/>
                </mxCell>
                <mxCell id="YhRIJiWPDkl4EWL_sA5s-27" value="" style="shape=image;html=1;verticalLabelPosition=bottom;verticalAlign=top;imageAspect=0;image=https://blog.knoldus.com/wp-content/uploads/2018/04/docker.png;" parent="YhRIJiWPDkl4EWL_sA5s-35" vertex="1">
                    <mxGeometry x="110" width="80" height="60" as="geometry"/>
                </mxCell>
                <mxCell id="YhRIJiWPDkl4EWL_sA5s-29" style="edgeStyle=orthogonalEdgeStyle;rounded=0;orthogonalLoop=1;jettySize=auto;html=1;exitX=0.5;exitY=1;exitDx=0;exitDy=0;entryX=0;entryY=0.5;entryDx=0;entryDy=0;" parent="YhRIJiWPDkl4EWL_sA5s-21" source="YhRIJiWPDkl4EWL_sA5s-11" target="YhRIJiWPDkl4EWL_sA5s-10" edge="1">
                    <mxGeometry relative="1" as="geometry"/>
                </mxCell>
                <mxCell id="2" value="" style="group" parent="YhRIJiWPDkl4EWL_sA5s-21" vertex="1" connectable="0">
                    <mxGeometry x="262" y="370" width="250" height="260" as="geometry"/>
                </mxCell>
                <mxCell id="YhRIJiWPDkl4EWL_sA5s-10" value="" style="shape=image;html=1;verticalLabelPosition=bottom;verticalAlign=top;imageAspect=0;image=https://download.logo.wine/logo/Redis/Redis-Logo.wine.png;clipPath=inset(25% 57.67% 25% 9%);aspect=fixed;" parent="2" vertex="1">
                    <mxGeometry y="50" width="210" height="210" as="geometry"/>
                </mxCell>
                <mxCell id="YhRIJiWPDkl4EWL_sA5s-23" value="" style="shape=image;html=1;verticalLabelPosition=bottom;verticalAlign=top;imageAspect=0;image=https://blog.knoldus.com/wp-content/uploads/2018/04/docker.png;" parent="2" vertex="1">
                    <mxGeometry x="163" y="40" width="80" height="60" as="geometry"/>
                </mxCell>
                <mxCell id="6" style="edgeStyle=orthogonalEdgeStyle;html=1;exitX=0.5;exitY=0;exitDx=0;exitDy=0;entryX=0;entryY=0.5;entryDx=0;entryDy=0;rounded=0;strokeColor=default;" edge="1" parent="YhRIJiWPDkl4EWL_sA5s-21" source="YhRIJiWPDkl4EWL_sA5s-11" target="3">
                    <mxGeometry relative="1" as="geometry"/>
                </mxCell>
                <mxCell id="YhRIJiWPDkl4EWL_sA5s-32" value="" style="group" parent="YhRIJiWPDkl4EWL_sA5s-21" vertex="1" connectable="0">
                    <mxGeometry x="270" y="155" width="270" height="165" as="geometry"/>
                </mxCell>
                <mxCell id="3" value="" style="shape=image;html=1;verticalLabelPosition=bottom;verticalAlign=top;imageAspect=0;image=https://cdn.icon-icons.com/icons2/2699/PNG/512/apache_spark_logo_icon_170560.png;" vertex="1" parent="YhRIJiWPDkl4EWL_sA5s-32">
                    <mxGeometry x="18.620689655172413" y="4.45945945945946" width="167.58620689655172" height="160.54054054054055" as="geometry"/>
                </mxCell>
                <mxCell id="YhRIJiWPDkl4EWL_sA5s-24" value="" style="shape=image;html=1;verticalLabelPosition=bottom;verticalAlign=top;imageAspect=0;image=https://blog.knoldus.com/wp-content/uploads/2018/04/docker.png;" parent="YhRIJiWPDkl4EWL_sA5s-32" vertex="1">
                    <mxGeometry x="169.99724137931034" width="74" height="56" as="geometry"/>
                </mxCell>
                <mxCell id="YhRIJiWPDkl4EWL_sA5s-33" value="" style="group" parent="YhRIJiWPDkl4EWL_sA5s-21" vertex="1" connectable="0">
                    <mxGeometry x="743.99" y="155" width="282.03" height="180" as="geometry"/>
                </mxCell>
                <mxCell id="YhRIJiWPDkl4EWL_sA5s-6" value="" style="shape=image;html=1;verticalLabelPosition=bottom;verticalAlign=top;imageAspect=0;image=https://www.geekandjob.com/uploads/wiki/f35e141d0d4427f26519a2907037bccfa61a95c8.png;clipPath=inset(19.52% 25.67% 23.81% 24.33%);aspect=fixed;" parent="YhRIJiWPDkl4EWL_sA5s-33" vertex="1">
                    <mxGeometry y="8" width="191.6" height="152" as="geometry"/>
                </mxCell>
                <mxCell id="YhRIJiWPDkl4EWL_sA5s-26" value="" style="shape=image;html=1;verticalLabelPosition=bottom;verticalAlign=top;imageAspect=0;image=https://blog.knoldus.com/wp-content/uploads/2018/04/docker.png;" parent="YhRIJiWPDkl4EWL_sA5s-33" vertex="1">
                    <mxGeometry x="166.01999999999998" width="80" height="60" as="geometry"/>
                </mxCell>
                <mxCell id="7" value="" style="group" vertex="1" connectable="0" parent="YhRIJiWPDkl4EWL_sA5s-21">
                    <mxGeometry x="160" y="40" width="120" height="75" as="geometry"/>
                </mxCell>
                <mxCell id="8" value="" style="shape=image;html=1;verticalLabelPosition=bottom;verticalAlign=top;imageAspect=0;image=https://cdn.icon-icons.com/icons2/2699/PNG/512/apache_spark_logo_icon_170560.png;" vertex="1" parent="7">
                    <mxGeometry x="8.275862068965518" y="2.027027027027027" width="74.48275862068965" height="72.97297297297298" as="geometry"/>
                </mxCell>
                <mxCell id="9" value="" style="shape=image;html=1;verticalLabelPosition=bottom;verticalAlign=top;imageAspect=0;image=https://blog.knoldus.com/wp-content/uploads/2018/04/docker.png;" vertex="1" parent="7">
                    <mxGeometry x="72.4432183908046" width="32.88888888888889" height="25.454545454545453" as="geometry"/>
                </mxCell>
                <mxCell id="13" value="" style="group" vertex="1" connectable="0" parent="YhRIJiWPDkl4EWL_sA5s-21">
                    <mxGeometry x="327" y="40" width="120" height="75" as="geometry"/>
                </mxCell>
                <mxCell id="14" value="" style="shape=image;html=1;verticalLabelPosition=bottom;verticalAlign=top;imageAspect=0;image=https://cdn.icon-icons.com/icons2/2699/PNG/512/apache_spark_logo_icon_170560.png;" vertex="1" parent="13">
                    <mxGeometry x="8.275862068965518" y="2.027027027027027" width="74.48275862068965" height="72.97297297297298" as="geometry"/>
                </mxCell>
                <mxCell id="15" value="" style="shape=image;html=1;verticalLabelPosition=bottom;verticalAlign=top;imageAspect=0;image=https://blog.knoldus.com/wp-content/uploads/2018/04/docker.png;" vertex="1" parent="13">
                    <mxGeometry x="72.4432183908046" width="32.88888888888889" height="25.454545454545453" as="geometry"/>
                </mxCell>
                <mxCell id="19" style="edgeStyle=orthogonalEdgeStyle;rounded=0;html=1;exitX=0;exitY=0;exitDx=0;exitDy=0;entryX=0.5;entryY=1;entryDx=0;entryDy=0;strokeColor=default;" edge="1" parent="YhRIJiWPDkl4EWL_sA5s-21" source="3" target="8">
                    <mxGeometry relative="1" as="geometry"/>
                </mxCell>
                <mxCell id="22" value="" style="group" vertex="1" connectable="0" parent="YhRIJiWPDkl4EWL_sA5s-21">
                    <mxGeometry x="690" y="30" width="120" height="100" as="geometry"/>
                </mxCell>
                <mxCell id="23" value="" style="shape=image;html=1;verticalLabelPosition=bottom;verticalAlign=top;imageAspect=0;image=https://www.geekandjob.com/uploads/wiki/f35e141d0d4427f26519a2907037bccfa61a95c8.png;clipPath=inset(19.52% 25.67% 23.81% 24.33%);aspect=fixed;" vertex="1" parent="22">
                    <mxGeometry y="4.444444444444445" width="81.52324220827572" height="64.67397085416445" as="geometry"/>
                </mxCell>
                <mxCell id="24" value="" style="shape=image;html=1;verticalLabelPosition=bottom;verticalAlign=top;imageAspect=0;image=https://blog.knoldus.com/wp-content/uploads/2018/04/docker.png;" vertex="1" parent="22">
                    <mxGeometry x="70.63929369216041" width="34.0389320285076" height="33.333333333333336" as="geometry"/>
                </mxCell>
                <mxCell id="25" value="" style="group" vertex="1" connectable="0" parent="YhRIJiWPDkl4EWL_sA5s-21">
                    <mxGeometry x="911" y="30" width="120" height="100" as="geometry"/>
                </mxCell>
                <mxCell id="26" value="" style="shape=image;html=1;verticalLabelPosition=bottom;verticalAlign=top;imageAspect=0;image=https://www.geekandjob.com/uploads/wiki/f35e141d0d4427f26519a2907037bccfa61a95c8.png;clipPath=inset(19.52% 25.67% 23.81% 24.33%);aspect=fixed;" vertex="1" parent="25">
                    <mxGeometry y="4.444444444444445" width="81.52324220827572" height="64.67397085416445" as="geometry"/>
                </mxCell>
                <mxCell id="27" value="" style="shape=image;html=1;verticalLabelPosition=bottom;verticalAlign=top;imageAspect=0;image=https://blog.knoldus.com/wp-content/uploads/2018/04/docker.png;" vertex="1" parent="25">
                    <mxGeometry x="70.63929369216041" width="34.0389320285076" height="33.333333333333336" as="geometry"/>
                </mxCell>
                <mxCell id="28" style="edgeStyle=orthogonalEdgeStyle;rounded=0;html=1;exitX=0.25;exitY=0;exitDx=0;exitDy=0;strokeColor=default;" edge="1" parent="YhRIJiWPDkl4EWL_sA5s-21" source="YhRIJiWPDkl4EWL_sA5s-6" target="23">
                    <mxGeometry relative="1" as="geometry"/>
                </mxCell>
                <mxCell id="29" style="edgeStyle=orthogonalEdgeStyle;rounded=0;html=1;exitX=0.75;exitY=0;exitDx=0;exitDy=0;entryX=0.5;entryY=1;entryDx=0;entryDy=0;strokeColor=default;" edge="1" parent="YhRIJiWPDkl4EWL_sA5s-21" source="YhRIJiWPDkl4EWL_sA5s-6" target="26">
                    <mxGeometry relative="1" as="geometry"/>
                </mxCell>
                <mxCell id="30" style="rounded=0;html=1;exitX=0;exitY=0.5;exitDx=0;exitDy=0;strokeColor=default;edgeStyle=orthogonalEdgeStyle;" edge="1" parent="YhRIJiWPDkl4EWL_sA5s-21" source="YhRIJiWPDkl4EWL_sA5s-15" target="YhRIJiWPDkl4EWL_sA5s-10">
                    <mxGeometry relative="1" as="geometry"/>
                </mxCell>
                <mxCell id="g-91ElmDDOz6dSzppS35-30" style="edgeStyle=orthogonalEdgeStyle;rounded=0;orthogonalLoop=1;jettySize=auto;html=1;exitX=0.5;exitY=0;exitDx=0;exitDy=0;entryX=0.5;entryY=1;entryDx=0;entryDy=0;" edge="1" parent="YhRIJiWPDkl4EWL_sA5s-21" source="3" target="14">
                    <mxGeometry relative="1" as="geometry"/>
                </mxCell>
                <mxCell id="16" value="" style="group" vertex="1" connectable="0" parent="1">
                    <mxGeometry x="700" y="-210" width="120" height="75" as="geometry"/>
                </mxCell>
                <mxCell id="17" value="" style="shape=image;html=1;verticalLabelPosition=bottom;verticalAlign=top;imageAspect=0;image=https://cdn.icon-icons.com/icons2/2699/PNG/512/apache_spark_logo_icon_170560.png;" vertex="1" parent="16">
                    <mxGeometry x="8.275862068965518" y="2.027027027027027" width="74.48275862068965" height="72.97297297297298" as="geometry"/>
                </mxCell>
                <mxCell id="18" value="" style="shape=image;html=1;verticalLabelPosition=bottom;verticalAlign=top;imageAspect=0;image=https://blog.knoldus.com/wp-content/uploads/2018/04/docker.png;" vertex="1" parent="16">
                    <mxGeometry x="72.4432183908046" width="32.88888888888889" height="25.454545454545453" as="geometry"/>
                </mxCell>
                <mxCell id="21" style="edgeStyle=orthogonalEdgeStyle;rounded=0;html=1;exitX=1;exitY=0;exitDx=0;exitDy=0;entryX=0.5;entryY=1;entryDx=0;entryDy=0;strokeColor=default;" edge="1" parent="1" source="3" target="17">
                    <mxGeometry relative="1" as="geometry"/>
                </mxCell>
            </root>
        </mxGraphModel>
    </diagram>
</mxfile>